<svg xmlns="http://www.w3.org/2000/svg" viewBox="0 0 100 100" width="100" height="100">
  <!-- Background -->
  <rect width="100" height="100" fill="#059669" rx="15"/>
  
  <!-- Left curly brace -->
  <path d="M 25 30 Q 20 30 20 35 L 20 42 Q 20 47 15 47 Q 20 47 20 52 L 20 59 Q 20 64 25 64" 
        stroke="#34d399" stroke-width="3.5" fill="none" stroke-linecap="round"/>
  
  <!-- Right curly brace -->
  <path d="M 75 30 Q 80 30 80 35 L 80 42 Q 80 47 85 47 Q 80 47 80 52 L 80 59 Q 80 64 75 64" 
        stroke="#34d399" stroke-width="3.5" fill="none" stroke-linecap="round"/>
  
  <!-- Key-value pairs representation -->
  <line x1="35" y1="38" x2="50" y2="38" stroke="#d1fae5" stroke-width="2.5" stroke-linecap="round"/>
  <circle cx="55" cy="38" r="2" fill="#d1fae5"/>
  <line x1="59" y1="38" x2="65" y2="38" stroke="#fbbf24" stroke-width="2.5" stroke-linecap="round"/>
  
  <line x1="35" y1="47" x2="48" y2="47" stroke="#d1fae5" stroke-width="2.5" stroke-linecap="round"/>
  <circle cx="53" cy="47" r="2" fill="#d1fae5"/>
  <line x1="57" y1="47" x2="65" y2="47" stroke="#fbbf24" stroke-width="2.5" stroke-linecap="round"/>
  
  <line x1="35" y1="56" x2="52" y2="56" stroke="#d1fae5" stroke-width="2.5" stroke-linecap="round"/>
  <circle cx="57" cy="56" r="2" fill="#d1fae5"/>
  <line x1="61" y1="56" x2="65" y2="56" stroke="#fbbf24" stroke-width="2.5" stroke-linecap="round"/>
  
  <!-- JSON text -->
  <text x="50" y="85" font-family="Arial, sans-serif" font-size="20" font-weight="bold" fill="white" text-anchor="middle">JSON</text>
</svg>

